<?xml version="1.0" encoding="UTF-8"?>
<svg version="1.1" xmlns="http://www.w3.org/2000/svg" width="143" height="143">
<path d="M0 0 C14.18143176 10.77821303 25.89926074 26.72759059 29.59765625 44.421875 C32.07741284 66.47485594 29.14354091 85.67343851 15.5625 103.8125 C14.39487022 105.22499695 13.2075355 106.62146274 12 108 C11.41863281 108.67546875 10.83726563 109.3509375 10.23828125 110.046875 C-1.50454159 122.74980285 -19.04070229 130.58698981 -36.26171875 131.3359375 C-59.41867758 131.7201277 -77.21525406 125.34481842 -94.125 109.25 C-108.14038242 94.84349063 -113.44071351 77.10817654 -113.36352539 57.453125 C-113.03881186 40.13507028 -106.5709952 23.95148269 -95 11 C-94.39542969 10.31421875 -93.79085937 9.6284375 -93.16796875 8.921875 C-69.3823347 -16.46238619 -28.25863744 -19.39040284 0 0 Z " fill="#231E20" transform="translate(113,12)"/>
<path d="M0 0 C14.22198849 10.80903707 25.48179279 25.58537366 28.27685547 43.48583984 C30.99723146 63.98729064 27.76518859 82.89067144 15.91015625 100.01953125 C14.02227435 102.43645491 12.04843611 104.71917828 10 107 C9.51015625 107.66257812 9.0203125 108.32515625 8.515625 109.0078125 C7.125 110.75 7.125 110.75 4 113 C-4.73788334 113.3614592 -16.03023435 107.98549073 -23 103 C-23.8125 99.3125 -23.8125 99.3125 -24 96 C-25.98 95.505 -25.98 95.505 -28 95 C-27.505 93.02 -27.505 93.02 -27 91 C-25.515 91.495 -25.515 91.495 -24 92 C-23.505 90.02 -23.505 90.02 -23 88 C-22.34 88 -21.68 88 -21 88 C-20.67 87.34 -20.34 86.68 -20 86 C-19.34 86 -18.68 86 -18 86 C-17.67 86.33 -17.34 86.66 -17 87 C-17.04125 85.741875 -17.0825 84.48375 -17.125 83.1875 C-17.2390374 79.70935927 -17.05925681 79.08888522 -15 76 C-12.00667261 76.9977758 -11.05233685 77.7522025 -9 80 C-9.33 79.34 -9.66 78.68 -10 78 C-10.04022391 75.6670134 -10.04320247 73.33293334 -10 71 C-6 71 -6 71 -3 72 C-3.350625 71.4225 -3.70125 70.845 -4.0625 70.25 C-5.14917407 67.64198224 -4.93065133 66.60582371 -4 64 C-3.34 64.33 -2.68 64.66 -2 65 C-2 61.7 -2 58.4 -2 55 C0.31 56.32 2.62 57.64 5 59 C4.34 57.35 3.68 55.7 3 54 C3.66 53.67 4.32 53.34 5 53 C4.38125 52.29875 3.7625 51.5975 3.125 50.875 C-0.97093299 44.83277261 -1 36.083131 -1 29 C0.65 28.67 2.3 28.34 4 28 C2.41856529 26.56041153 0.83477221 25.12341355 -0.75 23.6875 C-1.63171875 22.88699219 -2.5134375 22.08648437 -3.421875 21.26171875 C-5.88008259 19.02149314 -5.88008259 19.02149314 -8.28125 17.40625 C-10 16 -10 16 -10.75 12.8125 C-10.8325 11.884375 -10.915 10.95625 -11 10 C-11.66 10 -12.32 10 -13 10 C-13 10.66 -13 11.32 -13 12 C-15.3125 11.375 -15.3125 11.375 -18 10 C-19.01691264 8.00854609 -20.01642648 6.00812926 -21 4 C-25.06912985 0.76863218 -30.09937983 -0.47658624 -35 -2 C-35.99 -2.33 -36.98 -2.66 -38 -3 C-39.99820728 -3.09435979 -41.99957203 -3.12990301 -44 -3.125 C-45.051875 -3.12757812 -46.10375 -3.13015625 -47.1875 -3.1328125 C-50.08126878 -3.12353635 -50.08126878 -3.12353635 -53 -2 C-50.03 -1.67 -47.06 -1.34 -44 -1 C-47.07664082 1.05109388 -49.18695061 1.66801893 -52.75 2.5 C-57.20514743 3.56512627 -61.6076429 4.70225813 -66 6 C-66 6.99 -66 7.98 -66 9 C-67.175625 9.556875 -68.35125 10.11375 -69.5625 10.6875 C-73.71224807 12.75127845 -77.29604736 15.22203552 -81 18 C-79.35 18 -77.7 18 -76 18 C-78.70607648 27.50426863 -82.76880172 34.27330392 -90 41 C-87.525 40.505 -87.525 40.505 -85 40 C-85 42.64 -85 45.28 -85 48 C-84.34 46.35 -83.68 44.7 -83 43 C-82.34 43.33 -81.68 43.66 -81 44 C-80.47150259 49.28497409 -80.47150259 49.28497409 -81 52 C-84 54.5 -84 54.5 -87 56 C-84.69 56.66 -82.38 57.32 -80 58 C-78.89771304 62.40914783 -78.92345464 66.48382401 -79 71 C-78.01 69.515 -78.01 69.515 -77 68 C-74 69 -74 69 -73 71 C-72.93049459 72.54023996 -72.91547643 74.08334988 -72.9375 75.625 C-72.94652344 76.44226563 -72.95554688 77.25953125 -72.96484375 78.1015625 C-72.97644531 78.72804688 -72.98804688 79.35453125 -73 80 C-71.35 78.35 -69.7 76.7 -68 75 C-65.01485372 79.10457614 -64.7045561 81.97745369 -65 87 C-64.34 86.34 -63.68 85.68 -63 85 C-62.67 86.32 -62.34 87.64 -62 89 C-61.01 88.67 -60.02 88.34 -59 88 C-59 89.32 -59 90.64 -59 92 C-57.02 91.01 -57.02 91.01 -55 90 C-54.67 91.65 -54.34 93.3 -54 95 C-54.99 95.33 -55.98 95.66 -57 96 C-57.26941406 97.09828125 -57.53882813 98.1965625 -57.81640625 99.328125 C-59 103 -59 103 -61.65234375 105.109375 C-80.2995794 114.42190648 -80.2995794 114.42190648 -88 112 C-99.06873386 104.19339299 -106.0320795 89.50395117 -110 77 C-110.24492188 76.28070313 -110.48984375 75.56140625 -110.7421875 74.8203125 C-112.70905492 67.89586145 -114.2461929 54.4923858 -111 48 C-110.89524132 46.37624045 -110.81597438 44.75079729 -110.75 43.125 C-109.361867 27.23398488 -98.81107068 13.093734 -87 3 C-61.43499073 -15.96997789 -26.65651199 -18.29106257 0 0 Z " fill="#F6F6F6" transform="translate(113,12)"/>
<path d="M0 0 C6.81641456 10.22462184 5.39377848 27.77389895 3.34765625 39.375 C0.36490795 51.66443507 -5.69440846 62.51823536 -14 72 C-14.58136719 72.67546875 -15.16273437 73.3509375 -15.76171875 74.046875 C-27.50454159 86.74980285 -45.04070229 94.58698981 -62.26171875 95.3359375 C-85.41867758 95.7201277 -103.21525406 89.34481842 -120.125 73.25 C-133.26948283 59.73869439 -139.40446315 42.63855296 -139.25 24 C-139.25773438 23.06671875 -139.26546875 22.1334375 -139.2734375 21.171875 C-139.25662802 15.15408092 -138.50468022 9.82765036 -137 4 C-136.67 4 -136.34 4 -136 4 C-135.875 11.75 -135.875 11.75 -137 14 C-138.35523465 34.50625541 -133.43562954 52.88002513 -120 68.80859375 C-117.51901742 71.52701412 -114.94682783 74.12080273 -112.25 76.625 C-111 78 -111 78 -111 80 C-110.01 80.0928125 -110.01 80.0928125 -109 80.1875 C-106.20278369 80.94507942 -104.88785161 81.65475879 -102.5625 83.25 C-94.90908458 88.24577781 -85.17356049 91.7651819 -76 92 C-74.85273437 92.05027344 -73.70546875 92.10054688 -72.5234375 92.15234375 C-57.44310121 92.62050271 -43.67242441 90.75809303 -31 82 C-29.32009212 80.34668059 -27.65107148 78.68211727 -26 77 C-25.21625 76.71125 -24.4325 76.4225 -23.625 76.125 C-13.13883844 71.63093076 -6.14020946 57.40453019 -2.0625 47.3125 C2.55060818 34.10946625 3.8795108 19.68805678 0.4375 6.015625 C0 4 0 4 0 0 Z " fill="#070707" transform="translate(139,48)"/>
<path d="M0 0 C0.33 0 0.66 0 1 0 C1.125 7.75 1.125 7.75 0 10 C-1.45105697 31.95615712 4.49774969 50.28503521 19 67 C20.33931067 68.66186717 21.67420869 70.3273276 23 72 C16.96650187 70.92212016 13.68833645 66.2607149 10.16796875 61.546875 C1.5983765 48.77650224 -2.37640198 35.25250583 -2.25 20 C-2.25773438 19.06671875 -2.26546875 18.1334375 -2.2734375 17.171875 C-2.25662802 11.15408092 -1.50468022 5.82765036 0 0 Z " fill="#1B1B1B" transform="translate(2,52)"/>
<path d="M0 0 C1.9375 0.3125 1.9375 0.3125 4 1 C4.33 1.99 4.66 2.98 5 4 C5.99 4.0928125 5.99 4.0928125 7 4.1875 C9.79721631 4.94507942 11.11214839 5.65475879 13.4375 7.25 C24.62924426 14.555427 37.02663809 15.95468504 50 16.5625 C51.30517578 16.62727539 51.30517578 16.62727539 52.63671875 16.69335938 C54.75768219 16.79824218 56.87882433 16.89950075 59 17 C59 17.66 59 18.32 59 19 C37.31225628 19.77275776 17.72395511 17.41305126 1 2 C0.67 1.34 0.34 0.68 0 0 Z " fill="#030303" transform="translate(23,124)"/>
<path d="M0 0 C6.81641456 10.22462184 5.39377848 27.77389895 3.34765625 39.375 C0.90150635 49.45355755 -3.58046896 58.82436625 -10 67 C-10.99 66.67 -11.98 66.34 -13 66 C-12.55269531 65.40574219 -12.10539062 64.81148438 -11.64453125 64.19921875 C-0.16101306 48.45529082 4.40150593 30.23582211 1.54296875 10.91015625 C1.20846729 9.27133973 0.84583485 7.63762175 0.4375 6.015625 C0 4 0 4 0 0 Z " fill="#161616" transform="translate(139,48)"/>
<path d="M0 0 C-0.33 1.32 -0.66 2.64 -1 4 C-1.66 4 -2.32 4 -3 4 C-2.67 4.99 -2.34 5.98 -2 7 C-4.31856917 8.54571278 -6.50638429 9.79618552 -9 11 C-9 10.34 -9 9.68 -9 9 C-10.98 9.33 -12.96 9.66 -15 10 C-11.33829025 5.99500496 -5.76187936 0 0 0 Z " fill="#2C2B2B" transform="translate(46,21)"/>
<path d="M0 0 C4.11602073 1.37200691 5.53584739 4.24199142 7.875 7.6875 C11.06110684 12.32050857 14.3386588 16.72843526 18 21 C11.84330298 19.90011077 8.45349565 15.05581972 4.9921875 10.16015625 C0 2.46976215 0 2.46976215 0 0 Z " fill="#141414" transform="translate(7,103)"/>
<path d="M0 0 C4.79833434 3.87557774 9.42907477 7.92483886 13 13 C13 13.66 13 14.32 13 15 C11.125 14.8125 11.125 14.8125 9 14 C8.71125 13.195625 8.4225 12.39125 8.125 11.5625 C7.20295295 8.66336372 7.20295295 8.66336372 3.875 7.6875 C2.92625 7.460625 1.9775 7.23375 1 7 C1 6.34 1 5.68 1 5 C0.34 4.67 -0.32 4.34 -1 4 C-0.67 2.68 -0.34 1.36 0 0 Z " fill="#B8B8B8" transform="translate(118,17)"/>
<path d="M0 0 C0.33 0.66 0.66 1.32 1 2 C1.99 1.67 2.98 1.34 4 1 C6.40814077 4.51187196 7.36629408 6.72656908 7 11 C6.34 9.68 5.68 8.36 5 7 C4.525625 7.825 4.05125 8.65 3.5625 9.5 C3.046875 10.325 2.53125 11.15 2 12 C1.67 12 1.34 12 1 12 C1.33 9.03 1.66 6.06 2 3 C1.01 3.66 0.02 4.32 -1 5 C-1.99 4.67 -2.98 4.34 -4 4 C-2.68 2.68 -1.36 1.36 0 0 Z " fill="#323031" transform="translate(26,49)"/>
<path d="M0 0 C0.6875 2.0625 0.6875 2.0625 1 4 C-1.97 3.505 -1.97 3.505 -5 3 C-5 5.97 -5 8.94 -5 12 C-5.99 11.67 -6.98 11.34 -8 11 C-8.33 10.01 -8.66 9.02 -9 8 C-8.34 8 -7.68 8 -7 8 C-7.20625 7.4225 -7.4125 6.845 -7.625 6.25 C-8.09530596 3.42816426 -7.60769874 2.33116317 -6 0 C-3 -1 -3 -1 0 0 Z " fill="#2A2A2A" transform="translate(109,80)"/>
<path d="M0 0 C0.66 0 1.32 0 2 0 C2 2.31 2 4.62 2 7 C1.34 7 0.68 7 0 7 C0 8.98 0 10.96 0 13 C-0.33 13 -0.66 13 -1 13 C-1 11.35 -1 9.7 -1 8 C-2.32 7.67 -3.64 7.34 -5 7 C-4.67 5.68 -4.34 4.36 -4 3 C-3.01 3.33 -2.02 3.66 -1 4 C-0.67 2.68 -0.34 1.36 0 0 Z " fill="#D1D0D1" transform="translate(90,100)"/>
<path d="M0 0 C1.26237731 2.52475462 1.09856404 4.31200466 1.0625 7.125 C1.05347656 8.03507812 1.04445313 8.94515625 1.03515625 9.8828125 C1.02355469 10.58148438 1.01195313 11.28015625 1 12 C0.34 11.67 -0.32 11.34 -1 11 C-1 10.34 -1 9.68 -1 9 C-1.66 9 -2.32 9 -3 9 C-3.33 10.32 -3.66 11.64 -4 13 C-4 12.34 -4 11.68 -4 11 C-5.32 11.33 -6.64 11.66 -8 12 C-7.67 11.01 -7.34 10.02 -7 9 C-7.66 8.67 -8.32 8.34 -9 8 C-6 7 -6 7 -2 7 C-1.34 4.69 -0.68 2.38 0 0 Z " fill="#1C1819" transform="translate(96,89)"/>
<path d="M0 0 C0.33 0.99 0.66 1.98 1 3 C0 4 0 4 -2.5625 4.0625 C-3.7690625 4.0315625 -3.7690625 4.0315625 -5 4 C-5 3.67 -5 3.34 -5 3 C-7.31 2.67 -9.62 2.34 -12 2 C-9.67178678 -2.65642643 -4.2230553 -0.62307373 0 0 Z " fill="#404040" transform="translate(71,9)"/>
<path d="M0 0 C0.66 0.33 1.32 0.66 2 1 C2.44041451 6.37305699 2.44041451 6.37305699 2 9 C-0.5 11 -0.5 11 -3 12 C-2.25749403 7.91621717 -1.17076699 3.98060777 0 0 Z " fill="#E0DEDF" transform="translate(30,55)"/>
<path d="M0 0 C0.66 0.33 1.32 0.66 2 1 C1.360625 1.598125 0.72125 2.19625 0.0625 2.8125 C-2.20310389 4.90810337 -2.20310389 4.90810337 -3 8 C-4.84765625 9.38671875 -4.84765625 9.38671875 -7.0625 10.6875 C-8.16271484 11.34298828 -8.16271484 11.34298828 -9.28515625 12.01171875 C-9.85105469 12.33785156 -10.41695312 12.66398437 -11 13 C-9.46356148 9.31930113 -7.21849055 7.01224796 -4.375 4.25 C-3.55773437 3.45078125 -2.74046875 2.6515625 -1.8984375 1.828125 C-0.95871094 0.92320313 -0.95871094 0.92320313 0 0 Z " fill="#7D7D7D" transform="translate(26,15)"/>
<path d="M0 0 C7.50769231 -0.36923077 7.50769231 -0.36923077 10 1.5 C10.495 2.2425 10.495 2.2425 11 3 C10.67 3.66 10.34 4.32 10 5 C8.02 5 6.04 5 4 5 C4 3.68 4 2.36 4 1 C2.68 0.67 1.36 0.34 0 0 Z " fill="#191919" transform="translate(67,8)"/>
<path d="M0 0 C1.98 0.66 3.96 1.32 6 2 C6.33 1.34 6.66 0.68 7 0 C6.67 1.32 6.34 2.64 6 4 C4.02 4.33 2.04 4.66 0 5 C-0.5625 3.0625 -0.5625 3.0625 -1 1 C-0.67 0.67 -0.34 0.34 0 0 Z " fill="#EAEAEA" transform="translate(104,82)"/>
<path d="M0 0 C1.32 0.66 2.64 1.32 4 2 C3.67 3.98 3.34 5.96 3 8 C1.68 8.33 0.36 8.66 -1 9 C-1.33 7.68 -1.66 6.36 -2 5 C-1.01 5.33 -0.02 5.66 1 6 C0.67 4.02 0.34 2.04 0 0 Z " fill="#2A2829" transform="translate(99,20)"/>
<path d="M0 0 C0.99 0.66 1.98 1.32 3 2 C2.01 4.31 1.02 6.62 0 9 C-0.33 9 -0.66 9 -1 9 C-1.625 6.1875 -1.625 6.1875 -2 3 C-1.34 2.01 -0.68 1.02 0 0 Z " fill="#373233" transform="translate(51,93)"/>
<path d="M0 0 C0.33 1.32 0.66 2.64 1 4 C2.98 4 4.96 4 7 4 C6.67 5.32 6.34 6.64 6 8 C4.68 7.34 3.36 6.68 2 6 C1.01 6.99 0.02 7.98 -1 9 C-0.67 6.03 -0.34 3.06 0 0 Z " fill="#2C2A2A" transform="translate(34,75)"/>
<path d="M0 0 C2.97 1.98 2.97 1.98 6 4 C5.67 4.66 5.34 5.32 5 6 C4.01 5.67 3.02 5.34 2 5 C1.67 6.65 1.34 8.3 1 10 C0.67 10 0.34 10 0 10 C0 6.7 0 3.4 0 0 Z " fill="#D6D6D6" transform="translate(111,67)"/>
<path d="M0 0 C0.88672454 2.4828287 1.14518218 3.62029277 0.1875 6.125 C-1 8 -1 8 -3 10 C-3.66 9.67 -4.32 9.34 -5 9 C-3.7508258 5.54074837 -2.32472205 2.85306797 0 0 Z " fill="#949494" transform="translate(14,28)"/>
<path d="M0 0 C2.96404505 2.80804268 5.44499019 5.18315774 7 9 C5.125 8.8125 5.125 8.8125 3 8 C1.8125 5.625 1.8125 5.625 1 3 C0.67 2.01 0.34 1.02 0 0 Z " fill="#737373" transform="translate(124,23)"/>
<path d="M0 0 C0.66 0.33 1.32 0.66 2 1 C1.67 2.98 1.34 4.96 1 7 C0.34 7 -0.32 7 -1 7 C-1 6.34 -1 5.68 -1 5 C-1.66 4.67 -2.32 4.34 -3 4 C-2.01 2.68 -1.02 1.36 0 0 Z " fill="#191718" transform="translate(83,102)"/>
<path d="M0 0 C0.33 0.99 0.66 1.98 1 3 C-0.65 4.32 -2.3 5.64 -4 7 C-4.33 6.34 -4.66 5.68 -5 5 C-4.34 5 -3.68 5 -3 5 C-3.33 4.01 -3.66 3.02 -4 2 C-2.68 1.34 -1.36 0.68 0 0 Z " fill="#282728" transform="translate(53,115)"/>
<path d="M0 0 C0.33 0 0.66 0 1 0 C1.33 3.3 1.66 6.6 2 10 C1.01 9.67 0.02 9.34 -1 9 C-1.33 8.01 -1.66 7.02 -2 6 C-1.34 6 -0.68 6 0 6 C-0.2784375 5.071875 -0.2784375 5.071875 -0.5625 4.125 C-1 2 -1 2 0 0 Z " fill="#3F3E3E" transform="translate(102,82)"/>
<path d="M0 0 C3 1 3 1 4.6875 4.0625 C5.120625 5.031875 5.55375 6.00125 6 7 C5.01 7 4.02 7 3 7 C0 2.77777778 0 2.77777778 0 0 Z " fill="#0E0E0E" transform="translate(7,103)"/>
<path d="M0 0 C0.66 0.33 1.32 0.66 2 1 C2 2.32 2 3.64 2 5 C0.35 4.67 -1.3 4.34 -3 4 C-3 3.34 -3 2.68 -3 2 C-2.01 1.34 -1.02 0.68 0 0 Z " fill="#D1D0D1" transform="translate(57,102)"/>
<path d="M0 0 C0.33 1.32 0.66 2.64 1 4 C1.66 4.33 2.32 4.66 3 5 C1.35 6.65 -0.3 8.3 -2 10 C-1.34 6.7 -0.68 3.4 0 0 Z " fill="#2A292A" transform="translate(41,83)"/>
<path d="M0 0 C0.33 0.66 0.66 1.32 1 2 C1.66 2 2.32 2 3 2 C2.67 2.99 2.34 3.98 2 5 C2 4.34 2 3.68 2 3 C1.01 3.66 0.02 4.32 -1 5 C-1.99 4.67 -2.98 4.34 -4 4 C-2.68 2.68 -1.36 1.36 0 0 Z " fill="#3C3C3C" transform="translate(26,49)"/>
</svg>
